<?xml version="1.0" encoding="UTF-8"?>
<svg version="1.1" xmlns="http://www.w3.org/2000/svg" width="1178" height="1171">
<path d="M0 0 C388.74 0 777.48 0 1178 0 C1178 386.43 1178 772.86 1178 1171 C789.26 1171 400.52 1171 0 1171 C0 784.57 0 398.14 0 0 Z " fill="#060010" transform="translate(0,0)"/>
<path d="M0 0 C48.64924166 -1.3027412 96.98757015 9.87184379 140.28857422 32.078125 C141.50383789 32.70001709 141.50383789 32.70001709 142.74365234 33.33447266 C168.67540495 46.79657386 191.7020903 64.43603951 212.28857422 85.078125 C203.5157097 87.8444861 194.7046531 90.41442606 185.82006836 92.79785156 C183.82646659 93.33475213 181.83594042 93.88223189 179.84521484 94.4296875 C178.55697864 94.77669294 177.26857315 95.12307068 175.97998047 95.46875 C174.83730713 95.77844727 173.69463379 96.08814453 172.51733398 96.40722656 C167.85090161 97.37685652 164.62248462 97.93092203 160.52685547 95.3125 C159.56134766 94.49265625 158.59583984 93.6728125 157.60107422 92.828125 C126.29338475 67.36245223 85.96492132 51.15445615 46.28857422 45.078125 C45.57991211 44.96774902 44.87125 44.85737305 44.14111328 44.74365234 C17.90079543 40.74014397 -8.51760319 40.932762 -34.71142578 45.078125 C-35.57106934 45.21202637 -36.43071289 45.34592773 -37.31640625 45.48388672 C-82.4294497 52.79735908 -126.27365627 73.95480948 -159.71142578 105.078125 C-160.97877804 106.16552866 -162.24953316 107.24898094 -163.52392578 108.328125 C-210.54150766 149.32516286 -239.45413209 211.10645246 -243.71142578 273.078125 C-244.76689824 293.45003456 -244.48376994 313.99391873 -240.71142578 334.078125 C-240.52918457 335.07473145 -240.34694336 336.07133789 -240.15917969 337.09814453 C-237.81465699 349.69432289 -235.00978602 361.99908104 -230.71142578 374.078125 C-230.43991699 374.85655762 -230.1684082 375.63499023 -229.88867188 376.43701172 C-222.46849147 397.51753529 -212.75250027 416.91945481 -199.71142578 435.078125 C-199.2096582 435.78195312 -198.70789063 436.48578125 -198.19091797 437.2109375 C-192.32350226 445.39136017 -186.15118225 453.07941227 -179.23876953 460.3984375 C-176.93178532 462.84448259 -174.72120153 465.34641098 -172.52392578 467.890625 C-169.51183086 471.29295084 -166.34523504 474.29782703 -162.87158203 477.22265625 C-161.34434223 478.53448067 -159.85508534 479.89114299 -158.39501953 481.27734375 C-126.98679899 511.05521391 -81.41919469 532.51459428 -38.71142578 539.078125 C-38.01275391 539.18560059 -37.31408203 539.29307617 -36.59423828 539.40380859 C2.59265052 545.20354097 44.51726873 543.66856016 82.28857422 531.078125 C83.44776367 530.69430664 83.44776367 530.69430664 84.63037109 530.30273438 C111.96049011 521.13752414 137.74704837 508.17863382 160.28857422 490.078125 C161.19349609 489.36398437 162.09841797 488.64984375 163.03076172 487.9140625 C177.11289231 476.6244224 190.1017331 464.26076425 201.28857422 450.078125 C202.06974609 449.11390625 202.85091797 448.1496875 203.65576172 447.15625 C244.94870197 395.17727729 262.69333571 326.86036052 255.34326172 261.14819336 C252.74999796 241.34719322 248.49766002 220.18346189 239.85498047 202.05078125 C238.29296296 196.61065132 242.02219374 191.17612971 244.40185547 186.453125 C245.01809029 185.2163501 245.01809029 185.2163501 245.64677429 183.95458984 C246.51555318 182.21499463 247.38735179 180.47690466 248.26196289 178.74023438 C249.5942802 176.09163128 250.91371025 173.43689053 252.23193359 170.78125 C253.07947184 169.08815648 253.92775473 167.39543546 254.77685547 165.703125 C255.16867508 164.91341309 255.56049469 164.12370117 255.96418762 163.31005859 C258.05550537 159.17989954 260.21457601 155.58677266 263.28857422 152.078125 C287.46330368 194.21508361 298.78241893 242.25249103 298.60107422 290.578125 C298.59834 292.09398697 298.59834 292.09398697 298.59555054 293.64047241 C298.54803484 309.31554412 297.9433125 324.59786363 295.28857422 340.078125 C295.12760254 341.07328125 294.96663086 342.0684375 294.80078125 343.09375 C290.68130324 368.0401375 283.06861056 392.21897818 272.28857422 415.078125 C271.90620605 415.90038574 271.52383789 416.72264648 271.12988281 417.56982422 C261.96931359 437.12228345 250.61853163 455.11500251 237.28857422 472.078125 C236.58216797 472.99722656 235.87576172 473.91632813 235.14794922 474.86328125 C222.49826013 491.08676462 207.55719099 506.49644688 191.28857422 519.078125 C190.20099314 519.95369151 189.11514679 520.83141585 188.03076172 521.7109375 C155.0239877 548.33880078 115.54800049 567.3434938 74.28857422 577.078125 C73.54365723 577.25537109 72.79874023 577.43261719 72.03125 577.61523438 C66.15043459 578.97925855 60.24454814 580.09602292 54.28857422 581.078125 C53.36689453 581.23055664 52.44521484 581.38298828 51.49560547 581.54003906 C4.65263052 588.8572784 -52.07327975 586.68711803 -95.59814453 566.03125 C-97.97128581 564.96092381 -100.37600049 564.11578659 -102.83642578 563.265625 C-133.21762833 552.34015797 -160.91825554 533.54875823 -185.12158203 512.46313477 C-186.27122352 511.46161201 -187.42546401 510.4653602 -188.58251953 509.47241211 C-199.573104 499.98285654 -210.00398914 489.71594897 -218.71142578 478.078125 C-219.67787173 476.84844609 -220.64685038 475.62075555 -221.61767578 474.39453125 C-254.48435836 432.61493445 -274.81302066 384.55610936 -282.71142578 332.078125 C-282.84129883 331.26069824 -282.97117187 330.44327148 -283.10498047 329.60107422 C-286.85748412 305.09417714 -286.49807367 277.55242392 -282.71142578 253.078125 C-282.58251953 252.19946777 -282.45361328 251.32081055 -282.32080078 250.41552734 C-275.15762602 202.43717973 -256.69015712 157.02044627 -227.71142578 118.078125 C-227.22287109 117.41844727 -226.73431641 116.75876953 -226.23095703 116.07910156 C-220.18766557 107.98329164 -213.59273269 100.52735725 -206.64501953 93.19921875 C-204.35701775 90.78414587 -202.16657495 88.31159636 -200.02392578 85.765625 C-195.9726929 81.10621672 -191.40062719 77.08005414 -186.71142578 73.078125 C-186.10508301 72.55943848 -185.49874023 72.04075195 -184.87402344 71.50634766 C-174.56791722 62.74020521 -163.92513266 54.64700972 -152.71142578 47.078125 C-151.18195313 46.04365234 -151.18195313 46.04365234 -149.62158203 44.98828125 C-144.28374484 41.48843678 -138.81565888 38.52178296 -133.07080078 35.74609375 C-130.56566587 34.50226514 -128.11491742 33.2229335 -125.66455078 31.87890625 C-117.88248849 27.61867258 -110.3696676 23.97384357 -101.93017578 21.1796875 C-98.9834935 20.17123555 -96.23004039 18.99378019 -93.39892578 17.703125 C-83.25276217 13.376286 -72.35281604 10.88877231 -61.71142578 8.078125 C-60.7357666 7.81306152 -59.76010742 7.54799805 -58.75488281 7.27490234 C-51.09589633 5.25750624 -43.4330141 3.99780763 -35.58642578 2.953125 C-33.66685059 2.69547363 -33.66685059 2.69547363 -31.70849609 2.43261719 C-21.0988147 1.05177667 -10.6798183 0.30772032 0 0 Z " fill="#8AE17F" transform="translate(582.71142578125,108.921875)"/>
<path d="M0 0 C1.51931166 35.403272 2.78359069 70.81282549 3.92558169 106.23005795 C4.10351373 111.73663285 4.28631126 117.24303902 4.47006047 122.74942243 C4.67365203 128.85806842 4.87226304 134.96686758 5.06914902 141.07573318 C5.15144701 143.61009974 5.23511508 146.14442228 5.32034683 148.67869186 C5.55324229 155.62842357 5.74787379 162.57748208 5.9037323 169.52936172 C6.00492197 173.17744648 6.16507435 176.82060278 6.32556152 180.46652222 C6.39934637 182.89592163 6.47138509 185.32537483 6.54150391 187.75488281 C6.63574489 189.42451364 6.63574489 189.42451364 6.73188972 191.12787437 C6.84868859 196.92822037 6.45719109 200.25448512 2.36108398 204.54267883 C-0.59513457 207.09759922 -3.60578246 209.35504512 -7.05322266 211.21069336 C-7.9796759 211.72598602 -8.90612915 212.24127869 -9.86065674 212.77218628 C-10.81414001 213.30111481 -11.76762329 213.83004333 -12.75 214.375 C-14.70580173 215.55842635 -16.65543413 216.75210186 -18.59912109 217.95532227 C-22.65475776 220.45222897 -26.73505742 222.89847833 -30.84082031 225.31201172 C-39.72733327 230.57628763 -48.274822 236.34543672 -56.85534668 242.0894165 C-61.45199735 245.1565853 -66.07493632 248.1835888 -70.6953125 251.21484375 C-79.65633367 257.10439935 -88.58568168 263.04006858 -97.5 269 C-110.11023627 277.42938625 -122.76670964 285.78694745 -135.4375 294.125 C-155.61907729 307.40599258 -175.73325994 320.78638973 -195.82104492 334.20874023 C-196.50016937 334.65990204 -197.17929382 335.11106384 -197.8789978 335.57589722 C-199.40323385 336.59931379 -200.91707938 337.63826896 -202.42398071 338.68704224 C-203.22290741 339.23770355 -204.02183411 339.78836487 -204.8449707 340.35571289 C-205.56860306 340.86123184 -206.29223541 341.36675079 -207.03779602 341.8875885 C-209 343 -209 343 -212 343 C-212.95180571 338.91785989 -213.20568178 335.00348452 -213.34803772 330.81802368 C-213.37339346 330.10562983 -213.3987492 329.39323598 -213.42487329 328.65925443 C-213.50862226 326.27767481 -213.5864595 323.89593945 -213.66430664 321.51416016 C-213.72321839 319.80378029 -213.78248745 318.09341269 -213.84208679 316.38305664 C-214.00286485 311.73798985 -214.15844628 307.09276212 -214.31296849 302.44748354 C-214.47578613 297.57503597 -214.64290605 292.70273576 -214.80943298 287.83041382 C-215.08878951 279.6375257 -215.36487022 271.44453223 -215.63891602 263.25146484 C-215.95474332 253.81017353 -216.27523956 244.36904995 -216.5983935 234.92800677 C-216.90997608 225.82291933 -217.21863507 216.71773515 -217.52584648 207.61249924 C-217.65616343 203.75083856 -217.78740165 199.88921087 -217.91938972 196.02760696 C-218.07526179 191.46241629 -218.2285264 186.89714485 -218.37988472 182.33180237 C-218.43545145 180.66745997 -218.49185209 179.00314515 -218.54920578 177.33886337 C-218.70113524 172.92166564 -218.83935605 168.5046082 -218.94799733 164.08611917 C-218.98331297 162.66941064 -219.02214219 161.25278621 -219.06411815 159.83625937 C-219.12229167 157.75669594 -219.16204361 155.67757903 -219.19651794 153.59750366 C-219.23468707 151.80799569 -219.23468707 151.80799569 -219.27362728 149.98233604 C-218.9871936 146.86041965 -218.63111772 145.77682579 -216.390625 143.66015625 C-214.95313137 142.7318048 -213.48429131 141.85153018 -212 141 C-210.45277067 139.94458668 -208.90599868 138.88846615 -207.36512756 137.8237915 C-204.87387722 136.11727473 -202.35014 134.46170616 -199.82687378 132.80303955 C-196.16562334 130.39577613 -192.51517687 127.97220256 -188.86328125 125.55078125 C-188.08034195 125.03219543 -187.29740265 124.51360962 -186.49073792 123.97930908 C-176.59945686 117.42096845 -166.77109088 110.76936737 -156.9375 104.125 C-145.08934145 96.12333191 -133.23572087 88.13214103 -121.32495117 80.22387695 C-115.04650891 76.0482518 -108.79240164 71.83793904 -102.546875 67.61328125 C-98.94803183 65.17951714 -95.34909133 62.74589711 -91.75 60.3125 C-90.84169434 59.69831207 -89.93338867 59.08412415 -88.99755859 58.45132446 C-72.56378867 47.34522645 -56.02720044 36.40046709 -39.42871094 25.54223633 C-31.55168176 20.38151745 -23.72564011 15.21483061 -16.16064453 9.6027832 C-13.3047518 7.48425939 -10.39005841 5.48147728 -7.4375 3.5 C-6.44621094 2.8296875 -5.45492187 2.159375 -4.43359375 1.46875 C-2 0 -2 0 0 0 Z " fill="#070210" transform="translate(618,175)"/>
<path d="M0 0 C1.80305678 0.74991381 3.60672068 1.49836902 5.41088867 2.24560547 C7.4149493 3.115559 9.41722515 3.98963225 11.41796875 4.8671875 C12.50064026 5.33835999 13.58331177 5.80953247 14.6987915 6.29498291 C18.19658151 7.81811823 21.69203466 9.34653836 25.1875 10.875 C27.60472853 11.92861405 30.0221284 12.98183509 32.43969727 14.03466797 C37.17864413 16.09887807 41.91682394 18.16483136 46.65429688 20.23242188 C54.24285843 23.54347804 61.83888732 26.83709319 69.4375 30.125 C71.72790048 31.11710463 74.01826591 32.10929019 76.30859375 33.1015625 C77.40155762 33.5749707 78.49452148 34.04837891 79.62060547 34.53613281 C83.8482092 36.36742251 88.07559374 38.19921784 92.30290222 40.03118896 C95.4507784 41.39536905 98.59871779 42.75940273 101.74682617 44.12304688 C107.40814682 46.57549842 113.06892195 49.02917515 118.72720337 51.4886322 C135.44500716 58.75512685 152.19636338 65.93371223 169 73 C167.87649315 76.37052055 167.38326247 76.69333942 164.52978516 78.54248047 C163.41411667 79.27439102 163.41411667 79.27439102 162.27590942 80.02108765 C161.45524994 80.5478006 160.63459045 81.07451355 159.7890625 81.6171875 C158.93142303 82.17733551 158.07378357 82.73748352 157.19015503 83.31460571 C155.32311362 84.53310006 153.45371153 85.74798297 151.58227539 86.9597168 C146.52549226 90.23474889 141.48638574 93.53679646 136.4453125 96.8359375 C135.40534119 97.51561584 134.36536987 98.19529419 133.29388428 98.89556885 C122.95843035 105.65970798 112.72389226 112.56889683 102.5 119.5 C88.06896057 129.27345656 73.56874852 138.93308644 59 148.5 C45.29410426 157.50144128 31.6377625 166.56975769 18.05282593 175.75286865 C15.39816366 177.54684637 12.74190822 179.33844083 10.08520508 181.12939453 C1.75753727 186.7457901 -6.55913027 192.37704384 -14.84875488 198.04948425 C-18.72904171 200.70011813 -22.61866056 203.33682859 -26.51019287 205.97091675 C-28.36446158 207.23083646 -30.21452399 208.49697116 -32.06011963 209.76956177 C-34.60908797 211.5263636 -37.17160692 213.2613983 -39.73828125 214.9921875 C-40.48937668 215.51766678 -41.24047211 216.04314606 -42.014328 216.58454895 C-47.13433613 219.99289055 -47.13433613 219.99289055 -51.00244141 220.0246582 C-54.82767144 218.71707631 -58.52572922 217.2472544 -62.22265625 215.61328125 C-63.00458847 215.27378952 -63.78652069 214.93429779 -64.59214783 214.58451843 C-67.08505547 213.50012028 -69.57371061 212.40631146 -72.0625 211.3125 C-73.7074274 210.5964194 -75.35260764 209.88091933 -76.99804688 209.16601562 C-85.15640332 205.61264763 -93.27730646 201.99516228 -101.33374023 198.21557617 C-103.86337397 197.06228926 -106.41008956 196.00944895 -109 195 C-115.12522147 192.60749048 -121.04512164 189.78372627 -127 187 C-132.52394163 184.43273731 -137.99939853 181.98885508 -143.7265625 179.90625 C-146.58819798 178.76552933 -149.34265286 177.44807416 -152.125 176.125 C-159.6534473 172.55425304 -167.28793551 169.23901336 -174.9375 165.9375 C-176.21860503 165.38391161 -177.49969208 164.83028162 -178.78076172 164.27661133 C-181.45050729 163.12312654 -184.1204506 161.9701008 -186.79052734 160.81738281 C-187.47677185 160.52109985 -188.16301636 160.22481689 -188.87005615 159.91955566 C-190.31733106 159.29472706 -191.76463855 158.66997389 -193.2119751 158.04528809 C-197.67722268 156.11741287 -202.14025512 154.18454615 -206.60061646 152.24539185 C-208.0284541 151.62567086 -209.45706005 151.00771689 -210.88644409 150.39157104 C-212.87934682 149.53233713 -214.86961618 148.66726564 -216.859375 147.80078125 C-217.99858398 147.30747314 -219.13779297 146.81416504 -220.31152344 146.3059082 C-223 145 -223 145 -225 143 C-219.75862923 138.30452261 -214.29509452 134.38507935 -208.39453125 130.5625 C-207.47524338 129.96050781 -206.55595551 129.35851562 -205.60881042 128.73828125 C-202.67973563 126.82083794 -199.74652259 124.90986208 -196.8125 123 C-184.88479761 115.225577 -173.03256789 107.38881234 -161.40248108 99.17436218 C-153.05048531 93.29263788 -144.52681152 87.68524817 -135.9772644 82.09619141 C-120.5548054 72.00956117 -105.19985938 61.82722292 -89.9375 51.5 C-89.13354797 50.95605591 -88.32959595 50.41211182 -87.50128174 49.85168457 C-84.2254526 47.63469688 -80.95013553 45.41695577 -77.67553711 43.19815063 C-68.43325037 36.93592626 -59.17868489 30.69193065 -49.92288208 24.44970703 C-46.37231038 22.05480128 -42.8224301 19.65887435 -39.27372742 17.26119995 C-37.6127614 16.14232478 -35.94899847 15.02758909 -34.28230286 13.91726685 C-30.14176419 11.1545997 -26.0680623 8.33666782 -22.06152344 5.38232422 C-21.26132782 4.80796127 -20.4611322 4.23359833 -19.63668823 3.64183044 C-18.12822446 2.55706505 -16.63648346 1.44848779 -15.16629028 0.31239319 C-9.34817962 -3.80831905 -6.22459301 -2.94245269 0 0 Z " fill="#90E385" transform="translate(641,390)"/>
<path d="M0 0 C1.51931166 35.403272 2.78359069 70.81282549 3.92558169 106.23005795 C4.10351373 111.73663285 4.28631126 117.24303902 4.47006047 122.74942243 C4.67365203 128.85806842 4.87226304 134.96686758 5.06914902 141.07573318 C5.15144701 143.61009974 5.23511508 146.14442228 5.32034683 148.67869186 C5.55324229 155.62842357 5.74787379 162.57748208 5.9037323 169.52936172 C6.00492197 173.17744648 6.16507435 176.82060278 6.32556152 180.46652222 C6.39934637 182.89592163 6.47138509 185.32537483 6.54150391 187.75488281 C6.63574489 189.42451364 6.63574489 189.42451364 6.73188972 191.12787437 C6.84868859 196.92822037 6.45719109 200.25448512 2.36108398 204.54267883 C-0.59513457 207.09759922 -3.60578246 209.35504512 -7.05322266 211.21069336 C-7.9796759 211.72598602 -8.90612915 212.24127869 -9.86065674 212.77218628 C-10.81414001 213.30111481 -11.76762329 213.83004333 -12.75 214.375 C-14.70580173 215.55842635 -16.65543413 216.75210186 -18.59912109 217.95532227 C-22.65475776 220.45222897 -26.73505742 222.89847833 -30.84082031 225.31201172 C-39.72733327 230.57628763 -48.274822 236.34543672 -56.85534668 242.0894165 C-61.45199735 245.1565853 -66.07493632 248.1835888 -70.6953125 251.21484375 C-79.65633367 257.10439935 -88.58568168 263.04006858 -97.5 269 C-110.11023627 277.42938625 -122.76670964 285.78694745 -135.4375 294.125 C-155.61907729 307.40599258 -175.73325994 320.78638973 -195.82104492 334.20874023 C-196.50016937 334.65990204 -197.17929382 335.11106384 -197.8789978 335.57589722 C-199.40323385 336.59931379 -200.91707938 337.63826896 -202.42398071 338.68704224 C-203.22290741 339.23770355 -204.02183411 339.78836487 -204.8449707 340.35571289 C-205.56860306 340.86123184 -206.29223541 341.36675079 -207.03779602 341.8875885 C-209 343 -209 343 -212 343 C-212.95180571 338.91785989 -213.20568178 335.00348452 -213.34803772 330.81802368 C-213.37339346 330.10562983 -213.3987492 329.39323598 -213.42487329 328.65925443 C-213.50862226 326.27767481 -213.5864595 323.89593945 -213.66430664 321.51416016 C-213.72321839 319.80378029 -213.78248745 318.09341269 -213.84208679 316.38305664 C-214.00286485 311.73798985 -214.15844628 307.09276212 -214.31296849 302.44748354 C-214.47578613 297.57503597 -214.64290605 292.70273576 -214.80943298 287.83041382 C-215.08878951 279.6375257 -215.36487022 271.44453223 -215.63891602 263.25146484 C-215.95474332 253.81017353 -216.27523956 244.36904995 -216.5983935 234.92800677 C-216.90997608 225.82291933 -217.21863507 216.71773515 -217.52584648 207.61249924 C-217.65616343 203.75083856 -217.78740165 199.88921087 -217.91938972 196.02760696 C-218.07526179 191.46241629 -218.2285264 186.89714485 -218.37988472 182.33180237 C-218.43545145 180.66745997 -218.49185209 179.00314515 -218.54920578 177.33886337 C-218.70113524 172.92166564 -218.83935605 168.5046082 -218.94799733 164.08611917 C-218.98331297 162.66941064 -219.02214219 161.25278621 -219.06411815 159.83625937 C-219.12229167 157.75669594 -219.16204361 155.67757903 -219.19651794 153.59750366 C-219.23468707 151.80799569 -219.23468707 151.80799569 -219.27362728 149.98233604 C-218.9871936 146.86041965 -218.63111772 145.77682579 -216.390625 143.66015625 C-214.95313137 142.7318048 -213.48429131 141.85153018 -212 141 C-210.45277067 139.94458668 -208.90599868 138.88846615 -207.36512756 137.8237915 C-204.87387722 136.11727473 -202.35014 134.46170616 -199.82687378 132.80303955 C-196.16562334 130.39577613 -192.51517687 127.97220256 -188.86328125 125.55078125 C-188.08034195 125.03219543 -187.29740265 124.51360962 -186.49073792 123.97930908 C-176.59945686 117.42096845 -166.77109088 110.76936737 -156.9375 104.125 C-145.08934145 96.12333191 -133.23572087 88.13214103 -121.32495117 80.22387695 C-115.04650891 76.0482518 -108.79240164 71.83793904 -102.546875 67.61328125 C-98.94803183 65.17951714 -95.34909133 62.74589711 -91.75 60.3125 C-90.84169434 59.69831207 -89.93338867 59.08412415 -88.99755859 58.45132446 C-72.56378867 47.34522645 -56.02720044 36.40046709 -39.42871094 25.54223633 C-31.55168176 20.38151745 -23.72564011 15.21483061 -16.16064453 9.6027832 C-13.3047518 7.48425939 -10.39005841 5.48147728 -7.4375 3.5 C-6.44621094 2.8296875 -5.45492187 2.159375 -4.43359375 1.46875 C-2 0 -2 0 0 0 Z M-21.47021484 33.2019043 C-22.21385284 33.68997559 -22.95749084 34.17804688 -23.72366333 34.6809082 C-24.95486404 35.49434692 -24.95486404 35.49434692 -26.2109375 36.32421875 C-27.06984589 36.88947266 -27.92875427 37.45472656 -28.81369019 38.03710938 C-31.66920786 39.9179363 -34.52219454 41.80256219 -37.375 43.6875 C-38.35029663 44.33071198 -39.32559326 44.97392395 -40.33044434 45.6366272 C-57.14717235 56.72848609 -73.8728668 67.95203735 -90.53271484 79.27807617 C-97.91173931 84.2861706 -105.29701652 89.24775459 -112.890625 93.92578125 C-122.96924725 100.13581321 -132.71348477 106.8431219 -142.5 113.5 C-153.08594438 120.70065719 -163.65644431 127.88480231 -174.55323792 134.6091156 C-180.46305666 138.2607696 -186.21592344 142.12258917 -191.9375 146.0625 C-192.90623047 146.72443359 -193.87496094 147.38636719 -194.87304688 148.06835938 C-199.12737138 150.79493507 -199.12737138 150.79493507 -203 154 C-203.42111524 163.07035099 -202.88229113 172.22383217 -202.55688477 181.29223633 C-202.50906267 182.67031223 -202.46143046 184.04839472 -202.41397095 185.42648315 C-202.28591885 189.12662427 -202.15498454 192.82665777 -202.0232861 196.52667069 C-201.91312763 199.6282272 -201.80433504 202.72983106 -201.69550556 205.83143443 C-201.43870211 213.14868567 -201.17945798 220.46584764 -200.91870117 227.78295898 C-200.6504288 235.31228147 -200.38649741 242.8417475 -200.12464482 250.37129575 C-199.89876487 256.86174269 -199.67010534 263.35208774 -199.43925327 269.84235972 C-199.30179613 273.70781335 -199.16539136 277.57329663 -199.03170967 281.43888283 C-198.90604092 285.06949041 -198.77688872 288.699958 -198.6451149 292.33034897 C-198.57493377 294.2871499 -198.50826732 296.24407592 -198.44172668 298.20100403 C-198.22083952 304.19332367 -197.87524712 310.06625437 -197 316 C-187.59094691 310.15004673 -178.42823261 303.9428616 -169.25238037 297.73660278 C-166.43365325 295.83012565 -163.61370319 293.92546944 -160.79345703 292.02124023 C-156.84001667 289.35161842 -152.88706124 286.68128119 -148.93457031 284.01025391 C-139.58357737 277.69108047 -130.23035456 271.37521435 -120.875 265.0625 C-119.97491211 264.45508972 -119.07482422 263.84767944 -118.14746094 263.22186279 C-105.97755963 255.01084175 -93.7832889 246.83790788 -81.55844116 238.70895386 C-67.21584304 229.1701075 -52.9380112 219.53570712 -38.6640625 209.89453125 C-36.91536595 208.71353965 -35.16666807 207.53255 -33.41796875 206.3515625 C-32.58848724 205.79116272 -31.75900574 205.23076294 -30.90438843 204.65338135 C-25.2919789 200.8641852 -19.66261745 197.10212026 -14.01293945 193.36865234 C-12.09195346 192.15434045 -12.09195346 192.15434045 -11 191 C-10.89896712 188.33516846 -10.86761745 185.70147236 -10.88500977 183.03637695 C-10.88815217 182.19248822 -10.89129457 181.34859949 -10.8945322 180.47913837 C-10.9736599 169.11913411 -11.41987372 157.76937047 -11.83984375 146.41796875 C-11.92739675 143.98677008 -12.01467653 141.55556156 -12.10169983 139.12434387 C-12.28375114 134.05734653 -12.46799308 128.9904357 -12.65405273 123.92358398 C-12.89016994 117.49297011 -13.12244662 111.0622253 -13.3532629 104.63141918 C-13.57658911 98.41438609 -13.80191644 92.19742595 -14.02734375 85.98046875 C-14.08978429 84.25133271 -14.08978429 84.25133271 -14.15348625 82.48726463 C-14.42497933 74.99108265 -14.70531924 67.49530773 -15 60 C-15.04069233 58.9624268 -15.08138466 57.92485359 -15.12331009 56.85583878 C-15.24378814 53.84159173 -15.36994103 50.82764181 -15.49829102 47.8137207 C-15.53385322 46.9228863 -15.56941542 46.03205191 -15.60605526 45.11422253 C-15.81655731 40.34495256 -16.23484299 35.71304133 -17 31 C-18.75566339 31 -20.0369382 32.25840141 -21.47021484 33.2019043 Z " fill="#90E185" transform="translate(618,175)"/>
<path d="M0 0 C9.37414113 8.53652776 13.59239334 19.40557015 14.18359375 31.87109375 C14.35293178 39.07304011 14.33145632 46.11549023 12 53 C11.68160156 53.95390625 11.36320312 54.9078125 11.03515625 55.890625 C7.03148372 66.62100659 0.31290169 74.81482241 -10 80 C-12.73912447 81.17606051 -15.51071492 82.23306039 -18.3125 83.25 C-18.98724365 83.49645264 -19.6619873 83.74290527 -20.35717773 83.99682617 C-33.1604094 88.36832968 -45.89578657 88.25119385 -59.25 88.125 C-65.4375 88.08375 -71.625 88.0425 -78 88 C-78 108.13 -78 128.26 -78 149 C-85.59 149 -93.18 149 -101 149 C-101 95.87 -101 42.74 -101 -12 C-69.12225268 -19.96943683 -27.28458219 -21.20633368 0 0 Z " fill="#D3C1C1" transform="translate(406,767)"/>
<path d="M0 0 C-27.39 54.78 -54.78 109.56 -83 166 C-86.37466076 161.50045232 -86.37466076 161.50045232 -87.48632812 158.16870117 C-87.73668823 157.43080856 -87.98704834 156.69291595 -88.24499512 155.93266296 C-88.50445923 155.14406387 -88.76392334 154.35546478 -89.03125 153.54296875 C-89.30843872 152.72178055 -89.58562744 151.90059235 -89.87121582 151.05451965 C-90.75444904 148.43446109 -91.62775014 145.81123336 -92.5 143.1875 C-93.37379739 140.57503397 -94.24973688 137.96331963 -95.12878418 135.35261536 C-95.67426588 133.73094486 -96.21652811 132.10818656 -96.75500488 130.48417664 C-98.29818484 125.8776355 -100.05521201 121.45128868 -102 117 C-102.69834827 114.84333624 -103.36607618 112.6764718 -104 110.5 C-105.04278816 107.01478787 -106.0995552 103.77301413 -107.5625 100.4375 C-109.31755808 96.24062199 -110.12116306 92.03622028 -110.9609375 87.57421875 C-111.73094145 84.80588204 -111.73094145 84.80588204 -114.25683594 84.00048828 C-115.16208008 83.67032715 -116.06732422 83.34016602 -117 83 C-118.65604469 82.16424698 -120.29882938 81.30186293 -121.9296875 80.41796875 C-122.87859863 79.90451904 -123.82750977 79.39106934 -124.80517578 78.86206055 C-125.81821777 78.30945557 -126.83125977 77.75685059 -127.875 77.1875 C-128.93058105 76.61362549 -129.98616211 76.03975098 -131.07373047 75.44848633 C-142.11958163 69.42325276 -153.07110871 63.23424903 -164 57 C-165.16716553 56.33484375 -165.16716553 56.33484375 -166.35791016 55.65625 C-170.24148228 53.44250147 -174.12249192 51.22435905 -178 49 C-178 48.34 -178 47.68 -178 47 C-177.21052979 46.78384033 -176.42105957 46.56768066 -175.60766602 46.3449707 C-171.92549674 45.33577166 -168.24383173 44.32474903 -164.5625 43.3125 C-163.90028442 43.13048035 -163.23806885 42.94846069 -162.55578613 42.76092529 C-154.76633047 40.61786604 -146.98911396 38.44465013 -139.25 36.125 C-133.86791526 34.51239034 -128.49926592 33.15307189 -123 32 C-120.66393179 31.34298082 -118.33093619 30.67500027 -116 30 C-112.60435551 29.05361474 -109.20742637 28.11204512 -105.81005859 27.171875 C-101.19250487 25.89201453 -96.57875732 24.59977127 -91.96875 23.29296875 C-82.25863815 20.54556321 -72.55326859 17.83452826 -62.75 15.4375 C-56.16358695 13.82692028 -49.63665746 12.07775836 -43.125 10.1875 C-34.72612352 7.75673768 -26.30766035 5.40232465 -17.86737061 3.11978149 C-16.50130887 2.74930516 -15.13594348 2.37625123 -13.77130127 2.00057983 C-11.85593861 1.47391808 -9.93778533 0.95743729 -8.01953125 0.44140625 C-6.90682861 0.13920166 -5.79412598 -0.16300293 -4.64770508 -0.47436523 C-2 -1 -2 -1 0 0 Z " fill="#9CE692" transform="translate(861,194)"/>
<path d="M0 0 C9.03016431 7.90565328 13.30181955 18.22325187 14.15880966 30.07040787 C14.41136239 36.10429078 14.34493095 42.1383823 14.29296875 48.17578125 C14.28736138 50.10775928 14.28309669 52.03974162 14.28010559 53.97172546 C14.26874659 59.0137852 14.23935821 64.05557846 14.20599365 69.09753418 C14.17509806 74.2596476 14.16155893 79.4218048 14.14648438 84.58398438 C14.11447847 94.68110554 14.06339266 104.77803046 14 114.875 C11.44562324 115.36146779 8.89089842 115.84596366 6.3359375 116.3293457 C5.61784912 116.46631111 4.89976074 116.60327652 4.15991211 116.7443924 C-1.20883747 117.75784364 -6.55750748 118.56009827 -12 119.0625 C-12.83684326 119.14145508 -13.67368652 119.22041016 -14.53588867 119.30175781 C-33.9680528 121.00772643 -54.42122154 121.32855662 -70.54296875 109.0625 C-73.92250777 106.05368943 -76.07599453 102.94264627 -78 98.875 C-78.4125 98.00875 -78.825 97.1425 -79.25 96.25 C-82.30555744 86.57406809 -82.85677823 73.36012916 -78.37109375 64.109375 C-71.68134131 53.20755621 -61.88730615 47.11095308 -49.5625 43.9375 C-37.05810149 41.66652179 -18.66439052 40.04280474 -7 45.875 C-7.3413661 31.33794702 -7.3413661 31.33794702 -13.83203125 18.7109375 C-21.18453748 11.87858946 -28.25210874 11.51634818 -37.9375 11.5625 C-39.04601318 11.56378906 -40.15452637 11.56507813 -41.29663086 11.56640625 C-49.85561247 11.66615401 -57.74184339 12.61911332 -66 14.875 C-67.17293889 8.4971448 -68.29530838 2.37178438 -68 -4.125 C-66.00127261 -4.60944764 -64.00094063 -5.0872766 -62 -5.5625 C-60.88625 -5.82933594 -59.7725 -6.09617187 -58.625 -6.37109375 C-39.58820358 -10.33025507 -16.60710572 -11.44842005 0 0 Z " fill="#D3C1C2" transform="translate(574,799.125)"/>
<path d="M0 0 C0.66 0 1.32 0 2 0 C4.50364259 10.34642282 7.77652055 23.90157076 3 34 C-1.73050266 39.42337279 -8.60572173 42.61844848 -14.875 45.9375 C-26.02519538 51.22639351 -26.02519538 51.22639351 -33.99945068 60.06866455 C-35.95746888 66.97315534 -35.41896731 74.04160053 -34.50537109 81.07397461 C-33.13143306 91.87166548 -33.13143306 91.87166548 -35.92895508 95.50585938 C-38.84148756 97.64155964 -41.80996555 99.30929838 -45 101 C-47.09914544 102.4056529 -49.1838194 103.83314361 -51.25390625 105.28125 C-53.35515726 106.6899099 -55.45803011 108.0961535 -57.5625 109.5 C-59.17995117 110.59054687 -59.17995117 110.59054687 -60.83007812 111.703125 C-61.85681641 112.38890625 -62.88355469 113.0746875 -63.94140625 113.78125 C-64.86638916 114.40064453 -65.79137207 115.02003906 -66.74438477 115.65820312 C-69 117 -69 117 -71 117 C-71.02505615 116.2793335 -71.0501123 115.55866699 -71.07592773 114.81616211 C-71.19260076 111.52312536 -71.31500179 108.23032499 -71.4375 104.9375 C-71.47681641 103.80376953 -71.51613281 102.67003906 -71.55664062 101.50195312 C-71.76772337 95.93261605 -72.05095432 90.49489474 -73 85 C-73.74636719 85.50144531 -74.49273437 86.00289063 -75.26171875 86.51953125 C-92.27757071 97.92064618 -109.36199152 109.26109598 -126.6875 120.1875 C-127.32163818 120.59097656 -127.95577637 120.99445313 -128.60913086 121.41015625 C-132.7591428 124 -132.7591428 124 -135 124 C-135.96627118 114.023764 -136.51487087 104.03097293 -136.88720703 94.01708984 C-136.96271969 92.16457788 -137.05236099 90.31259056 -137.15576172 88.46142578 C-138.11642594 71.04977035 -138.11642594 71.04977035 -134.4375 66.359375 C-132.47314453 64.67822266 -132.47314453 64.67822266 -130 63 C-128.98663574 62.27989746 -127.97327148 61.55979492 -126.92919922 60.81787109 C-123.75656648 58.6212431 -120.51551087 56.54234199 -117.26403809 54.46496582 C-113.07000937 51.75118254 -108.95091744 48.92614399 -104.8203125 46.1171875 C-103.05100741 44.91893682 -101.28147455 43.7210224 -99.51171875 42.5234375 C-96.78750829 40.6788217 -94.06380147 38.83347818 -91.34130859 36.98632812 C-88.66904712 35.17369832 -85.99486035 33.36394139 -83.3203125 31.5546875 C-82.49757843 30.995466 -81.67484436 30.43624451 -80.82717896 29.8600769 C-80.07483978 29.35179352 -79.32250061 28.84351013 -78.54736328 28.31982422 C-77.88423126 27.87033417 -77.22109924 27.42084412 -76.53787231 26.95773315 C-75 26 -75 26 -74 26 C-73.2636141 33.43343163 -72.740793 40.84912572 -72.4375 48.3125 C-72.3950415 49.3334375 -72.35258301 50.354375 -72.30883789 51.40625 C-71.90639341 61.93944467 -71.9227609 72.46143184 -72 83 C-50.44515235 73.36830721 -50.44515235 73.36830721 -35.16802979 56.9284668 C-33.99179206 51.01217923 -34.91106472 45.09425355 -35.66189575 39.17617798 C-37.06578512 26.83569126 -37.06578512 26.83569126 -33.5904541 22.06512451 C-25.46722636 13.67945742 -14.50858669 7.96808228 -4.21875 2.66943359 C-1.21808608 1.31879886 -1.21808608 1.31879886 0 0 Z " fill="#90E285" transform="translate(579,285)"/>
<path d="M0 0 C1.7931665 -0.03323364 1.7931665 -0.03323364 3.62255859 -0.06713867 C16.77927903 -0.03528882 29.46308306 3.45709969 39.31640625 12.5078125 C53.91754778 27.9425367 53.22861364 49.63087257 53.16015625 69.578125 C53.15828657 71.19765173 53.15686527 72.81717904 53.15586853 74.43670654 C53.15208663 78.65832129 53.14229434 82.87990055 53.13116455 87.10150146 C53.12085636 91.42573568 53.11635094 95.74997574 53.11132812 100.07421875 C53.10066731 108.52866378 53.08310663 116.98307336 53.0625 125.4375 C45.8025 125.4375 38.5425 125.4375 31.0625 125.4375 C31.0531543 123.25455322 31.04380859 121.07160645 31.03417969 118.82250977 C31.00013873 111.54215736 30.94444353 104.26208036 30.87859726 96.98194981 C30.83938953 92.57576248 30.80707219 88.16976703 30.79150391 83.76342773 C30.77615869 79.49671753 30.74140639 75.23053584 30.69419098 70.96406364 C30.67955857 69.35095805 30.67146965 67.73777692 30.67061615 66.12460518 C30.65722874 53.48778906 30.59880011 36.87294378 21.7734375 26.8828125 C14.77089589 20.96742347 7.36739332 20.25655126 -1.4375 20.25 C-2.69046875 20.23163086 -2.69046875 20.23163086 -3.96875 20.21289062 C-11.00488854 20.19680189 -16.76572206 21.24220368 -23.9375 22.4375 C-23.9375 56.4275 -23.9375 90.4175 -23.9375 125.4375 C-31.1975 125.4375 -38.4575 125.4375 -45.9375 125.4375 C-45.9375 86.1675 -45.9375 46.8975 -45.9375 6.4375 C-30.39485776 2.19859757 -16.08559497 0.15943645 0 0 Z " fill="#D0BFC0" transform="translate(665.9375,790.5625)"/>
<path d="M0 0 C0 12.54 0 25.08 0 38 C15.18 38 30.36 38 46 38 C46 43.94 46 49.88 46 56 C30.82 56 15.64 56 0 56 C0.06193872 67.99534584 0.06193872 67.99534584 0.16015625 79.99023438 C0.20830794 84.89022037 0.25242075 89.7899865 0.27099609 94.69018555 C0.28626036 98.64566735 0.32087564 102.60056971 0.36830902 106.55579185 C0.38302303 108.05662658 0.39103522 109.55754409 0.39188385 111.0584507 C0.34205981 125.26364366 0.34205981 125.26364366 6.44683838 137.7381134 C13.25885586 143.82086462 23.13258487 142.53138837 31.6875 142.20556641 C36.5227001 141.77574815 40.63396367 139.97574169 45 138 C45.66 138 46.32 138 47 138 C48.32 143.94 49.64 149.88 51 156 C34.51730584 163.06401178 17.35029329 166.28853425 0 160 C-6.45737342 157.27532775 -11.02486418 153.7797987 -15 148 C-15.56847656 147.17628906 -15.56847656 147.17628906 -16.1484375 146.3359375 C-24.62698379 131.86503518 -22.39155511 111.96820124 -22.29296875 95.96875 C-22.28567649 93.27877042 -22.28294978 90.58879119 -22.28010559 87.89880371 C-22.27085422 81.58459322 -22.24633621 75.27054223 -22.21605712 68.95640135 C-22.18229525 61.75667363 -22.16597288 54.5569375 -22.15097082 47.35715008 C-22.11977874 32.57135255 -22.0671558 17.78567909 -22 3 C-19.45953542 2.49311395 -16.91791124 1.99433126 -14.375 1.5 C-13.66214844 1.35691406 -12.94929687 1.21382812 -12.21484375 1.06640625 C-11.51230469 0.93105469 -10.80976562 0.79570313 -10.0859375 0.65625 C-9.1276001 0.46772461 -9.1276001 0.46772461 -8.14990234 0.27539062 C-5.45374726 -0.06997196 -2.71818461 0 0 0 Z " fill="#B3AFB3" transform="translate(829,756)"/>
<path d="M0 0 C0.00146656 0.80360521 0.00293312 1.60721043 0.00444412 2.43516731 C0.04149849 21.9901853 0.100495 41.54502445 0.18390274 61.0999012 C0.22370925 70.55651254 0.25609355 80.01304048 0.27099609 89.46972656 C0.28400426 97.71234496 0.31094754 105.95477996 0.35461307 114.19729507 C0.37724672 118.56153746 0.39290954 122.92555348 0.39188385 127.28985977 C0.39113836 131.39889239 0.40904425 135.50742423 0.44116783 139.61632729 C0.44967664 141.12313745 0.45141006 142.63000372 0.44580269 144.13682747 C0.43915541 146.19785024 0.45709669 148.25728304 0.48101807 150.31814575 C0.48470524 151.47038698 0.48839241 152.62262821 0.49219131 153.80978584 C1.11899167 157.74754319 2.50208029 159.9218636 5 163 C8.21364963 164.56131323 8.21364963 164.56131323 11.75 165.375 C13.8125 165.91125 15.875 166.4475 18 167 C17.01 172.94 16.02 178.88 15 185 C3.77242813 185.52835632 -5.42968085 183.93937465 -14.34765625 176.69921875 C-20.30194634 170.57601263 -22.25384891 161.51324615 -22.24050903 153.2358551 C-22.24221788 152.59283996 -22.24392673 151.94982482 -22.24568737 151.28732437 C-22.24895674 149.15310266 -22.23802133 147.01920205 -22.22705078 144.88500977 C-22.22648611 143.34705106 -22.22680431 141.80909182 -22.22793579 140.27113342 C-22.22850813 136.11047599 -22.21677302 131.94993456 -22.20278788 127.78930402 C-22.19026077 123.43579021 -22.18910846 119.08227356 -22.18673706 114.72874451 C-22.18052811 106.49119807 -22.16412521 98.2537049 -22.14403808 90.01618189 C-22.12166087 80.63531073 -22.11068107 71.25443698 -22.10064721 61.87354577 C-22.07975846 42.58233368 -22.04459387 23.29117113 -22 4 C-18.89688362 3.32838005 -15.79234832 2.66356325 -12.6875 2 C-11.80642578 1.80921875 -10.92535156 1.6184375 -10.01757812 1.421875 C-9.17001953 1.24140625 -8.32246094 1.0609375 -7.44921875 0.875 C-6.66893311 0.70742188 -5.88864746 0.53984375 -5.0847168 0.3671875 C-3 0 -3 0 0 0 Z " fill="#D2C0C0" transform="translate(464,733)"/>
<path d="M0 0 C1.28583984 -0.01224609 2.57167969 -0.02449219 3.89648438 -0.03710938 C17.21840214 -0.05751047 33.54603851 1.41727097 43.625 11.125 C50.32286835 18.73881615 51.2523071 26.05760097 51.15234375 35.8984375 C50.62108362 44.03154713 47.48741228 51.13435233 41.36328125 56.58984375 C25.54861874 67.87622979 -0.26705474 65.1875 -17.0625 65.1875 C-17.0625 44.0675 -17.0625 22.9475 -17.0625 1.1875 C-11.60915892 -0.63028036 -5.70572791 0.00280104 0 0 Z " fill="#070111" transform="translate(345.0625,770.8125)"/>
<path d="M0 0 C7.59 0 15.18 0 23 0 C23 53.79 23 107.58 23 163 C15.41 163 7.82 163 0 163 C0 109.21 0 55.42 0 0 Z " fill="#C3BABC" transform="translate(751,753)"/>
<path d="M0 0 C0.66 0 1.32 0 2 0 C4.50364259 10.34642282 7.77652055 23.90157076 3 34 C-1.73050266 39.42337279 -8.60572173 42.61844848 -14.875 45.9375 C-26.02519538 51.22639351 -26.02519538 51.22639351 -33.99945068 60.06866455 C-35.95746888 66.97315534 -35.41896731 74.04160053 -34.50537109 81.07397461 C-34.32326617 82.51750174 -34.14554956 83.96159063 -33.97265625 85.40625 C-33.89049866 86.09054581 -33.80834106 86.77484161 -33.72369385 87.47987366 C-33.47159571 91.26916152 -33.80026821 92.75856883 -36.24755859 95.71679688 C-39.07998487 97.77691274 -41.88122125 99.41669152 -45 101 C-46.17939284 101.81522272 -47.34943271 102.64457586 -48.5 103.5 C-51 105 -51 105 -54 105 C-54.12397147 100.53435699 -54.21450992 96.06963561 -54.2746582 91.6027832 C-54.29974109 90.08470199 -54.3338166 88.56674082 -54.37719727 87.04907227 C-54.43813293 84.86184035 -54.46626895 82.67620961 -54.48828125 80.48828125 C-54.51446533 79.17384033 -54.54064941 77.85939941 -54.56762695 76.50512695 C-53.84187571 72.023574 -52.54326912 70.77235739 -49 68 C-46.71941046 66.72923198 -44.43133164 65.47183022 -42.13671875 64.2265625 C-39.59483948 62.6337141 -38.10525121 61.2657655 -36 59 C-35.18639093 54.06529853 -35.86649733 49.5960837 -36.53442383 44.67205811 C-37.43821783 37.20623564 -38.25206666 28.3466112 -33.51605225 22.01660156 C-25.38092906 13.66379894 -14.49739663 7.96207887 -4.21875 2.66943359 C-1.21808608 1.31879886 -1.21808608 1.31879886 0 0 Z " fill="#80DE73" transform="translate(579,285)"/>
<path d="M0 0 C8.57026563 -0.22485056 13.74493494 0.76175782 22.49609375 3.1484375 C22.49609375 15.3584375 22.49609375 27.5684375 22.49609375 40.1484375 C16.62294372 41.61672501 10.84045805 41.3328553 4.80859375 41.3359375 C3.56658203 41.34818359 2.32457031 41.36042969 1.04492188 41.37304688 C-17.26276211 41.40215289 -17.26276211 41.40215289 -24.50390625 35.1484375 C-28.41899527 30.86048285 -29.86528288 26.94815168 -30.12890625 21.1484375 C-29.82257615 15.35733998 -28.81384346 11.1800246 -24.50390625 7.1484375 C-16.36492001 1.74216321 -9.46419722 0.40093589 0 0 Z " fill="#080212" transform="translate(544.50390625,858.8515625)"/>
<path d="M0 0 C4.02471986 28.58938934 4.02471986 28.58938934 -1.2421875 36.26953125 C-4.08885519 38.28688518 -6.7808661 39.67421345 -10 41 C-11.18817299 41.8023718 -12.36070233 42.62962285 -13.5 43.5 C-16 45 -16 45 -19 45 C-19.12397147 40.53435699 -19.21450992 36.06963561 -19.2746582 31.6027832 C-19.29974109 30.08470199 -19.3338166 28.56674082 -19.37719727 27.04907227 C-19.43813293 24.86184035 -19.46626895 22.67620961 -19.48828125 20.48828125 C-19.51446533 19.17384033 -19.54064941 17.85939941 -19.56762695 16.50512695 C-18.66988906 10.96154722 -15.29534256 8.95280011 -10.95703125 5.76171875 C-9.91933594 5.07722656 -8.88164063 4.39273437 -7.8125 3.6875 C-6.76707031 2.99011719 -5.72164062 2.29273438 -4.64453125 1.57421875 C-2 0 -2 0 0 0 Z " fill="#C7F0C2" transform="translate(544,345)"/>
<path d="M0 0 C4.32229477 8.64458954 2.92011776 25.64570583 1 35 C-2.57607103 41.10614977 -8.50062957 43.80835183 -15 46 C-15.66 46 -16.32 46 -17 46 C-20.79509288 16.5327976 -20.79509288 16.5327976 -16.28076172 9.21191406 C-11.64522813 4.7444453 -6.06202199 2.04226176 0 0 Z " fill="#77DD6A" transform="translate(525,356)"/>
<path d="M0 0 C0.44233163 4.69269476 0.80113725 9.38205478 1.08642578 14.08691406 C1.19461768 15.68298683 1.32482529 17.27773441 1.47802734 18.87011719 C1.97442424 24.12337702 2.19395573 28.83056528 1 34 C-2.49108058 37.83161041 -6.2119996 40.06750383 -11 42 C-11.66 42 -12.32 42 -13 42 C-13.09935088 37.69504985 -13.17169268 33.39071817 -13.21972656 29.08496094 C-13.23976332 27.62227748 -13.26700104 26.15967334 -13.30175781 24.69726562 C-13.35063225 22.5870399 -13.37304659 20.47787864 -13.390625 18.3671875 C-13.41157227 17.09987793 -13.43251953 15.83256836 -13.45410156 14.52685547 C-12.82861275 9.66889234 -10.74636018 6.5842508 -7.1484375 3.3203125 C-2.22222222 0 -2.22222222 0 0 0 Z " fill="#D5EAD2" transform="translate(581,285)"/>
<path d="M0 0 C0.02505615 0.95890137 0.0501123 1.91780273 0.07592773 2.90576172 C0.1699862 6.45798477 0.27021058 10.01001156 0.37231445 13.56201172 C0.41566926 15.10037653 0.45734395 16.63878963 0.49731445 18.17724609 C0.55500398 20.3865414 0.61870179 22.59559348 0.68359375 24.8046875 C0.70030624 25.49432587 0.71701874 26.18396423 0.73423767 26.89450073 C0.80806995 30.57114264 0.80806995 30.57114264 2 34 C1.43410156 34.24492187 0.86820313 34.48984375 0.28515625 34.7421875 C-2.14791713 35.98224248 -4.0260258 37.10114532 -6 39 C-6.98881755 42.35583157 -7.10823125 45.51630649 -7 49 C-7.33 49 -7.66 49 -8 49 C-9.19594829 40.88997567 -9.17591454 32.81795013 -9.03271484 24.64208984 C-9.01080882 23.04033412 -9.00344838 21.43831684 -9.01025391 19.83642578 C-9.01930943 17.49867116 -8.98329015 15.16537254 -8.9375 12.828125 C-8.94861816 12.11658264 -8.95973633 11.40504028 -8.97119141 10.67193604 C-8.86985075 7.67762513 -8.56315406 5.56701306 -6.41455078 3.40368652 C-1.74585378 0 -1.74585378 0 0 0 Z " fill="#35BD25" transform="translate(552,304)"/>
<path d="M0 0 C0.33 0.66 0.66 1.32 1 2 C0.67 2.66 0.34 3.32 0 4 C-0.01388654 6.35182465 0.03504524 8.70412349 0.11328125 11.0546875 C0.14541509 12.48824767 0.17596447 13.92184407 0.20507812 15.35546875 C0.25444906 17.61670688 0.3125391 19.87603763 0.39770508 22.13623047 C0.47658469 24.31769252 0.51690979 26.49712188 0.55078125 28.6796875 C0.58856689 29.98663574 0.62635254 31.29358398 0.6652832 32.64013672 C0 36 0 36 -2.84692383 38.45751953 C-6 40 -6 40 -9 40 C-9.12397147 35.53435699 -9.21450992 31.06963561 -9.2746582 26.6027832 C-9.29974109 25.08470199 -9.3338166 23.56674082 -9.37719727 22.04907227 C-9.43813293 19.86184035 -9.46626895 17.67620961 -9.48828125 15.48828125 C-9.51446533 14.17384033 -9.54064941 12.85939941 -9.56762695 11.50512695 C-8.71662585 6.25014941 -5.70322321 4.33495873 -1.6875 1.1875 C-1.130625 0.795625 -0.57375 0.40375 0 0 Z " fill="#96E48C" transform="translate(534,350)"/>
<path d="M0 0 C0.33 0.66 0.66 1.32 1 2 C0.67 2.66 0.34 3.32 0 4 C-0.0499617 6.37447586 -0.03604318 8.75040352 0.0078125 11.125 C0.02532523 12.56770134 0.04223385 14.01041012 0.05859375 15.453125 C0.08960644 17.73132732 0.12518581 20.00916152 0.17138672 22.28710938 C0.2136177 24.4831205 0.23713243 26.6786947 0.2578125 28.875 C0.29092529 30.85113281 0.29092529 30.85113281 0.32470703 32.8671875 C0.16397705 34.41792969 0.16397705 34.41792969 0 36 C-3.22791555 38.1519437 -4.28400809 38.20086443 -8 38 C-8.19863726 33.5528174 -8.3433135 29.10801816 -8.43945312 24.65771484 C-8.47954492 23.14618946 -8.53403905 21.6349717 -8.60351562 20.12451172 C-9.16852951 7.51971661 -9.16852951 7.51971661 -6.18359375 3.63769531 C-4.17338739 2.13004054 -2.30789363 0.98157032 0 0 Z " fill="#93E389" transform="translate(569,292)"/>
<path d="M0 0 C0.02505615 0.95890137 0.0501123 1.91780273 0.07592773 2.90576172 C0.1699862 6.45798477 0.27021058 10.01001156 0.37231445 13.56201172 C0.41566926 15.10037653 0.45734395 16.63878963 0.49731445 18.17724609 C0.55500398 20.3865414 0.61870179 22.59559348 0.68359375 24.8046875 C0.70030624 25.49432587 0.71701874 26.18396423 0.73423767 26.89450073 C0.80806995 30.57114264 0.80806995 30.57114264 2 34 C-3.75 38 -3.75 38 -6 38 C-6.29159743 33.23242017 -6.54274637 28.46504926 -6.75683594 23.69335938 C-6.83529334 22.07104186 -6.9247261 20.44921609 -7.02539062 18.828125 C-7.16833813 16.49522165 -7.27151508 14.16338611 -7.3671875 11.828125 C-7.42002899 11.10506165 -7.47287048 10.38199829 -7.52731323 9.63702393 C-7.58935547 7.57519531 -7.58935547 7.57519531 -7 4 C-2.24284033 0 -2.24284033 0 0 0 Z " fill="#2FC91A" transform="translate(514,364)"/>
<path d="M0 0 C1.04271123 6.9429309 1.25149826 13.79729933 1.3125 20.8125 C1.34150391 21.94365234 1.37050781 23.07480469 1.40039062 24.24023438 C1.40876953 25.32240234 1.41714844 26.40457031 1.42578125 27.51953125 C1.44036377 28.50026611 1.45494629 29.48100098 1.4699707 30.49145508 C1 33 1 33 -0.90161133 34.8425293 C-3 36 -3 36 -5 36 C-5.07427649 31.51598515 -5.12866111 27.03229826 -5.16479492 22.54785156 C-5.17986151 21.0230485 -5.20031876 19.49828864 -5.22631836 17.97363281 C-5.26279706 15.77918834 -5.27974714 13.58531784 -5.29296875 11.390625 C-5.3086792 10.07094727 -5.32438965 8.75126953 -5.34057617 7.39160156 C-4.97239638 3.72511153 -4.28715338 0 0 0 Z " fill="#E7F6E5" transform="translate(544,345)"/>
<path d="M0 0 C0.33 0.66 0.66 1.32 1 2 C0.34 1.67 -0.32 1.34 -1 1 C-0.67 0.67 -0.34 0.34 0 0 Z M-3 2 C-2.34 2 -1.68 2 -1 2 C-1.00785522 3.3317627 -1.00785522 3.3317627 -1.01586914 4.69042969 C-1.03293868 7.99284518 -1.04546363 11.29521359 -1.05493164 14.59765625 C-1.05995206 16.02539816 -1.06676972 17.45313496 -1.07543945 18.88085938 C-1.08760553 20.93621079 -1.09325128 22.99149407 -1.09765625 25.046875 C-1.10551147 26.90070801 -1.10551147 26.90070801 -1.11352539 28.79199219 C-1.02071737 31.4145671 -0.78356673 33.51644594 0 36 C-4.75 39 -4.75 39 -7 39 C-7.09935088 34.69504985 -7.17169268 30.39071817 -7.21972656 26.08496094 C-7.23976332 24.62227748 -7.26700104 23.15967334 -7.30175781 21.69726562 C-7.35063225 19.5870399 -7.37304659 17.47787864 -7.390625 15.3671875 C-7.41157227 14.09987793 -7.43251953 12.83256836 -7.45410156 11.52685547 C-6.91965362 7.37597642 -5.6492723 5.20289754 -3 2 Z " fill="#B8EDB1" transform="translate(575,288)"/>
<path d="M0 0 C1.50606515 3.01213029 1.12160331 6.11282622 1.09765625 9.4140625 C1.0962413 10.14370209 1.09482635 10.87334167 1.09336853 11.62509155 C1.08776531 13.95843585 1.07521235 16.29168464 1.0625 18.625 C1.05748541 20.20572778 1.05292243 21.78645707 1.04882812 23.3671875 C1.03779484 27.24482854 1.02052811 31.12239807 1 35 C-0.65 35.66 -2.3 36.32 -4 37 C-6.72810724 34.27189276 -5.3186859 26.40185352 -5.35009766 22.47241211 C-5.36664238 20.95435235 -5.39391364 19.43637003 -5.43212891 17.91870117 C-5.48695794 15.73054592 -5.50877897 13.54421881 -5.5234375 11.35546875 C-5.54325684 10.04215576 -5.56307617 8.72884277 -5.58349609 7.37573242 C-5 4 -5 4 -2.46728516 1.5402832 C-1.65308105 1.03198975 -0.83887695 0.52369629 0 0 Z " fill="#58D548" transform="translate(519,360)"/>
<path d="M0 0 C0 12 0 24 0 36 C-1.9375 36.5625 -1.9375 36.5625 -4 37 C-6.72810724 34.27189276 -5.3186859 26.40185352 -5.35009766 22.47241211 C-5.36664238 20.95435235 -5.39391364 19.43637003 -5.43212891 17.91870117 C-5.48695794 15.73054592 -5.50877897 13.54421881 -5.5234375 11.35546875 C-5.54325684 10.04215576 -5.56307617 8.72884277 -5.58349609 7.37573242 C-5 4 -5 4 -2.46728516 1.5402832 C-1.65308105 1.03198975 -0.83887695 0.52369629 0 0 Z " fill="#60D750" transform="translate(557,300)"/>
<path d="M0 0 C0.02505615 0.95890137 0.0501123 1.91780273 0.07592773 2.90576172 C0.1699862 6.45798477 0.27021058 10.01001156 0.37231445 13.56201172 C0.41566926 15.10037653 0.45734395 16.63878963 0.49731445 18.17724609 C0.55500398 20.3865414 0.61870179 22.59559348 0.68359375 24.8046875 C0.70030624 25.49432587 0.71701874 26.18396423 0.73423767 26.89450073 C0.80806995 30.57114264 0.80806995 30.57114264 2 34 C-1 36 -1 36 -4 36 C-4.07427649 31.51598515 -4.12866111 27.03229826 -4.16479492 22.54785156 C-4.17986151 21.0230485 -4.20031876 19.49828864 -4.22631836 17.97363281 C-4.26279706 15.77918834 -4.27974714 13.58531784 -4.29296875 11.390625 C-4.3086792 10.07094727 -4.32438965 8.75126953 -4.34057617 7.39160156 C-4.08729127 4.86928342 -3.49527613 0 0 0 Z " fill="#49D137" transform="translate(552,304)"/>
<path d="M0 0 C0.33 0 0.66 0 1 0 C1.03758423 1.43835205 1.03758423 1.43835205 1.07592773 2.90576172 C1.1699862 6.45798477 1.27021058 10.01001156 1.37231445 13.56201172 C1.41566926 15.10037653 1.45734395 16.63878963 1.49731445 18.17724609 C1.55500398 20.3865414 1.61870179 22.59559348 1.68359375 24.8046875 C1.70030624 25.49432587 1.71701874 26.18396423 1.73423767 26.89450073 C1.80806995 30.57114264 1.80806995 30.57114264 3 34 C1.35 34.66 -0.3 35.32 -2 36 C-2.04936883 31.19451403 -2.08570443 26.38917506 -2.10986328 21.58349609 C-2.11993254 19.94805328 -2.13358881 18.31262851 -2.15087891 16.67724609 C-2.17508705 14.3290563 -2.18647357 11.98110412 -2.1953125 9.6328125 C-2.21079636 8.53273361 -2.21079636 8.53273361 -2.22659302 7.41043091 C-2.22699368 5.60537303 -2.12212755 3.8009217 -2 2 C-1.34 1.34 -0.68 0.68 0 0 Z " fill="#41CF2F" transform="translate(513,364)"/>
<path d="M0 0 C0.33 0.66 0.66 1.32 1 2 C0.67 2.66 0.34 3.32 0 4 C-0.08639869 6.40838678 -0.11567764 8.78733881 -0.09765625 11.1953125 C-0.0962413 11.90275604 -0.09482635 12.61019958 -0.09336853 13.33908081 C-0.087766 15.60109669 -0.07521318 17.86301398 -0.0625 20.125 C-0.05748532 21.65755065 -0.05292236 23.19010286 -0.04882812 24.72265625 C-0.03779577 28.48180888 -0.02052952 32.24088772 0 36 C-1.98 36.495 -1.98 36.495 -4 37 C-4.09917794 32.53432237 -4.17161225 28.06923493 -4.21972656 23.6027832 C-4.23979203 22.0847659 -4.26705134 20.56682541 -4.30175781 19.04907227 C-4.35050393 16.86194878 -4.37301805 14.67585048 -4.390625 12.48828125 C-4.41157227 11.17384033 -4.43251953 9.85939941 -4.45410156 8.50512695 C-3.93371011 4.48832046 -2.78629985 2.86583955 0 0 Z " fill="#AEEAA6" transform="translate(534,350)"/>
<path d="M0 0 C0.33 0.66 0.66 1.32 1 2 C0.67 2.66 0.34 3.32 0 4 C-0.08639869 6.40838678 -0.11567764 8.78733881 -0.09765625 11.1953125 C-0.0962413 11.90275604 -0.09482635 12.61019958 -0.09336853 13.33908081 C-0.087766 15.60109669 -0.07521318 17.86301398 -0.0625 20.125 C-0.05748532 21.65755065 -0.05292236 23.19010286 -0.04882812 24.72265625 C-0.03779577 28.48180888 -0.02052952 32.24088772 0 36 C-1.98 36.495 -1.98 36.495 -4 37 C-4.09917794 32.53432237 -4.17161225 28.06923493 -4.21972656 23.6027832 C-4.23979203 22.0847659 -4.26705134 20.56682541 -4.30175781 19.04907227 C-4.35050393 16.86194878 -4.37301805 14.67585048 -4.390625 12.48828125 C-4.41157227 11.17384033 -4.43251953 9.85939941 -4.45410156 8.50512695 C-3.93371011 4.48832046 -2.78629985 2.86583955 0 0 Z " fill="#A7E89F" transform="translate(569,292)"/>
<path d="M0 0 C0.33 0.66 0.66 1.32 1 2 C0.34 1.67 -0.32 1.34 -1 1 C-0.67 0.67 -0.34 0.34 0 0 Z M-3 2 C-2.34 2 -1.68 2 -1 2 C-1.00523682 2.8878418 -1.01047363 3.77568359 -1.01586914 4.69042969 C-1.03293868 7.99284518 -1.04546363 11.29521359 -1.05493164 14.59765625 C-1.05995206 16.02539816 -1.06676972 17.45313496 -1.07543945 18.88085938 C-1.08760553 20.93621079 -1.09325128 22.99149407 -1.09765625 25.046875 C-1.10551147 26.90070801 -1.10551147 26.90070801 -1.11352539 28.79199219 C-1.02071737 31.4145671 -0.78356673 33.51644594 0 36 C-1.98 36.495 -1.98 36.495 -4 37 C-4.0246519 32.17619198 -4.04283693 27.35242033 -4.05493164 22.52856445 C-4.05997174 20.88630536 -4.06680378 19.24405077 -4.07543945 17.60180664 C-4.08751926 15.24624521 -4.09323139 12.89074291 -4.09765625 10.53515625 C-4.10281754 9.79660904 -4.10797882 9.05806183 -4.11329651 8.2971344 C-4.1134925 6.53101912 -4.06194719 4.76502854 -4 3 C-3.67 2.67 -3.34 2.34 -3 2 Z " fill="#C6EEC1" transform="translate(575,288)"/>
<path d="M0 0 C1.50606515 3.01213029 1.12160331 6.11282622 1.09765625 9.4140625 C1.09553383 10.50852188 1.09553383 10.50852188 1.09336853 11.62509155 C1.08776531 13.95843585 1.07521235 16.29168464 1.0625 18.625 C1.05748541 20.20572778 1.05292243 21.78645707 1.04882812 23.3671875 C1.03779484 27.24482854 1.02052811 31.12239807 1 35 C-0.485 35.495 -0.485 35.495 -2 36 C-2.04936883 31.19451403 -2.08570443 26.38917506 -2.10986328 21.58349609 C-2.11993254 19.94805328 -2.13358881 18.31262851 -2.15087891 16.67724609 C-2.17508705 14.3290563 -2.18647357 11.98110412 -2.1953125 9.6328125 C-2.21079636 8.53273361 -2.21079636 8.53273361 -2.22659302 7.41043091 C-2.22699368 5.60537303 -2.12212755 3.8009217 -2 2 C-1.34 1.34 -0.68 0.68 0 0 Z " fill="#37CC24" transform="translate(548,306)"/>
<path d="M0 0 C0.33 0 0.66 0 1 0 C1.03758423 1.24088379 1.03758423 1.24088379 1.07592773 2.50683594 C1.19196349 6.25471192 1.314656 10.00234125 1.4375 13.75 C1.47681641 15.05195313 1.51613281 16.35390625 1.55664062 17.6953125 C1.59853516 18.94570313 1.64042969 20.19609375 1.68359375 21.484375 C1.72025146 22.63647461 1.75690918 23.78857422 1.79467773 24.97558594 C1.96452174 27.47740224 2.27968475 29.61091168 3 32 C1.02 32.495 1.02 32.495 -1 33 C-1.02465392 28.46102295 -1.04283789 23.92208457 -1.05493164 19.38305664 C-1.0599714 17.83780234 -1.0668032 16.29255284 -1.07543945 14.74731445 C-1.08752076 12.53074971 -1.09323173 10.31424782 -1.09765625 8.09765625 C-1.10281754 7.4028566 -1.10797882 6.70805695 -1.11329651 5.99220276 C-1.11349277 4.3277067 -1.06189129 2.66334501 -1 1 C-0.67 0.67 -0.34 0.34 0 0 Z " fill="#71DB63" transform="translate(557,302)"/>
<path d="M0 0 C0.33 0 0.66 0 1 0 C1 10.56 1 21.12 1 32 C0.67 32 0.34 32 0 32 C-0.33 29.03 -0.66 26.06 -1 23 C-1.33 23 -1.66 23 -2 23 C-2.0580476 19.72924117 -2.09361165 16.45861476 -2.125 13.1875 C-2.14175781 12.25873047 -2.15851562 11.32996094 -2.17578125 10.37304688 C-2.18222656 9.48037109 -2.18867187 8.58769531 -2.1953125 7.66796875 C-2.20578613 6.84578857 -2.21625977 6.0236084 -2.22705078 5.17651367 C-2 3 -2 3 0 0 Z " fill="#EDFAEC" transform="translate(579,286)"/>
<path d="M0 0 C0.33 0 0.66 0 1 0 C1.01981934 0.72590332 1.03963867 1.45180664 1.06005859 2.19970703 C1.1556819 5.50848475 1.26521007 8.8166633 1.375 12.125 C1.4059375 13.26710938 1.436875 14.40921875 1.46875 15.5859375 C1.50742187 16.69453125 1.54609375 17.803125 1.5859375 18.9453125 C1.6173584 19.96125488 1.6487793 20.97719727 1.68115234 22.02392578 C2.02591445 25.24188142 2.87550812 27.9737359 4 31 C2.68 31.33 1.36 31.66 0 32 C0 21.44 0 10.88 0 0 Z " fill="#98E48E" transform="translate(527,357)"/>
<path d="M0 0 C0.33 0 0.66 0 1 0 C1.06058594 0.69867188 1.12117187 1.39734375 1.18359375 2.1171875 C1.26738281 3.02726562 1.35117187 3.93734375 1.4375 4.875 C1.55931641 6.23238281 1.55931641 6.23238281 1.68359375 7.6171875 C1.86989285 10.01110861 1.86989285 10.01110861 3 12 C1.68 12.33 0.36 12.66 -1 13 C-1.02686553 11.02090602 -1.04633375 9.04171029 -1.0625 7.0625 C-1.07410156 5.96035156 -1.08570313 4.85820312 -1.09765625 3.72265625 C-1 1 -1 1 0 0 Z " fill="#E6F5E4" transform="translate(578,308)"/>
</svg>
