<?xml version="1.0" encoding="UTF-8"?>
<svg version="1.1" xmlns="http://www.w3.org/2000/svg" width="119" height="153">
<path d="M0 0 C39.27 0 78.54 0 119 0 C119 50.49 119 100.98 119 153 C79.73 153 40.46 153 0 153 C0 102.51 0 52.02 0 0 Z " fill="#060010" transform="translate(0,0)"/>
<path d="M0 0 C0.75742996 -0.00807175 1.51485992 -0.01614349 2.29524231 -0.02445984 C3.90163892 -0.03830177 5.50806495 -0.04902344 7.11450195 -0.05688477 C9.55543022 -0.07403188 11.99498032 -0.11790605 14.43554688 -0.16210938 C15.99868799 -0.17224252 17.56184059 -0.18075668 19.125 -0.1875 C19.84817917 -0.20500809 20.57135834 -0.22251617 21.31645203 -0.24055481 C27.5516947 -0.21426028 31.39726999 1.81021892 36.27148438 5.75878906 C36.73490234 6.23155273 37.19832031 6.70431641 37.67578125 7.19140625 C38.20453857 7.72459473 38.7332959 8.2577832 39.27807617 8.80712891 C40.07822144 9.63929932 40.07822144 9.63929932 40.89453125 10.48828125 C41.45696533 11.06239746 42.01939941 11.63651367 42.59887695 12.22802734 C56.63658848 26.65302804 56.63658848 26.65302804 56.66918945 33.91552734 C56.67872147 35.08038666 56.68825348 36.24524597 56.69807434 37.44540405 C56.69716293 38.7047879 56.69625153 39.96417175 56.6953125 41.26171875 C56.69959763 42.55518219 56.70388275 43.84864563 56.70829773 45.18130493 C56.71575852 47.92006526 56.71547024 50.6586967 56.71020508 53.39746094 C56.7044174 56.900222 56.72132435 60.40245309 56.74454975 63.90512657 C56.76286398 67.2531792 56.75910096 70.60111633 56.7578125 73.94921875 C56.76702225 75.20455414 56.77623199 76.45988953 56.78572083 77.75326538 C56.77949203 78.92442902 56.77326324 80.09559265 56.7668457 81.30224609 C56.76747513 82.33022308 56.76810455 83.35820007 56.76875305 84.41732788 C56.17207685 88.91518381 53.85764429 92.35235371 50.39453125 95.23828125 C47.38006335 96.24310388 45.27149567 96.39425042 42.11621094 96.44702148 C41.03789001 96.4663121 39.95956909 96.48560272 38.84857178 96.50547791 C33.91714885 96.56327434 28.98587054 96.61249149 24.05419922 96.64331055 C21.4547803 96.66489933 18.85543423 96.69901187 16.25634766 96.74584961 C12.50520413 96.8128258 8.75556328 96.84030756 5.00390625 96.859375 C3.84638855 96.88720566 2.68887085 96.91503632 1.49627686 96.94371033 C-3.87688863 96.93004503 -7.59964798 96.85710088 -11.83105469 93.32446289 C-15.74412486 89.38331981 -15.77125616 86.15501209 -15.81420898 80.77856445 C-15.82399277 80.0092308 -15.83377655 79.23989716 -15.84385681 78.44725037 C-15.87383305 75.89453871 -15.89520515 73.34187966 -15.9140625 70.7890625 C-15.92063433 69.91702871 -15.92720615 69.04499493 -15.93397713 68.14653587 C-15.96658438 63.52845253 -15.99102894 58.91039235 -16.01049805 54.29223633 C-16.02829574 50.47320876 -16.06308848 46.65492172 -16.11303711 42.83618164 C-16.17329812 38.22371938 -16.20398221 33.61194263 -16.21367073 28.99910545 C-16.22221871 27.2436342 -16.24102079 25.48818092 -16.27041435 23.73293495 C-16.51546828 8.26334169 -16.51546828 8.26334169 -12.69165039 3.66870117 C-8.25998213 0.17868792 -5.46922442 0.05509447 0 0 Z " fill="#50A0FD" transform="translate(37.60546875,22.76171875)"/>
<path d="M0 0 C2.69142126 1.42981754 3.41075353 3.36245787 4.47265625 6.140625 C5.20837945 8.82192732 5.20180563 11.30448973 5 14.0625 C5.66 14.0625 6.32 14.0625 7 14.0625 C7.103125 12.845625 7.20625 11.62875 7.3125 10.375 C7.79574941 6.64140181 8.50632192 4.00147774 11 1.0625 C13.5 0.0625 13.5 0.0625 16 0.0625 C19.31622496 2.15049349 20.0502958 5.40979153 21 9.0625 C21.125 11.9375 21.125 11.9375 21 14.0625 C21.66 14.0625 22.32 14.0625 23 14.0625 C23.03738281 13.47082031 23.07476562 12.87914063 23.11328125 12.26953125 C23.51376901 7.45582549 24.0385035 4.05408223 27 0.0625 C31.875 0.9375 31.875 0.9375 33 2.0625 C33.41374189 8.77604766 32.20858535 14.79231751 30.6875 21.3125 C30.47416016 22.2921875 30.26082031 23.271875 30.04101562 24.28125 C29.82509766 25.22484375 29.60917969 26.1684375 29.38671875 27.140625 C29.19295654 27.99043945 28.99919434 28.84025391 28.79956055 29.71582031 C27.92494301 32.28278939 26.72950408 33.99151671 25 36.0625 C22.75 36.125 22.75 36.125 20 35.0625 C17.08265651 30.49455426 15.55123578 25.4370489 15 20.0625 C14.34 20.0625 13.68 20.0625 13 20.0625 C12.83564453 20.93261719 12.83564453 20.93261719 12.66796875 21.8203125 C11.69968856 26.5908637 10.76378556 30.96800287 8 35.0625 C5.3125 35.9375 5.3125 35.9375 3 36.0625 C0.57567634 33.15950957 -0.54817733 30.81835259 -1.38671875 27.140625 C-1.60263672 26.19703125 -1.81855469 25.2534375 -2.04101562 24.28125 C-2.25435547 23.3015625 -2.46769531 22.321875 -2.6875 21.3125 C-2.91244141 20.34828125 -3.13738281 19.3840625 -3.36914062 18.390625 C-4.60656954 12.85416492 -5.55042129 7.73507702 -5 2.0625 C-2 0.0625 -2 0.0625 0 0 Z " fill="#080416" transform="translate(44,70.9375)"/>
<path d="M0 0 C3.45116902 1.4844314 5.68859241 3.44333067 8.328125 6.09765625 C9.12734375 6.89880859 9.9265625 7.69996094 10.75 8.52539062 C11.575 9.36263672 12.4 10.19988281 13.25 11.0625 C14.09046875 11.90361328 14.9309375 12.74472656 15.796875 13.61132812 C22 19.85976816 22 19.85976816 22 21 C18.70849875 21.08685287 15.4172904 21.14033895 12.125 21.1875 C11.18785156 21.21263672 10.25070313 21.23777344 9.28515625 21.26367188 C8.38925781 21.27333984 7.49335937 21.28300781 6.5703125 21.29296875 C5.32918701 21.31653442 5.32918701 21.31653442 4.06298828 21.34057617 C3.38220215 21.22818604 2.70141602 21.1157959 2 21 C-0.06723714 17.89914429 -0.24497423 17.27068319 -0.1953125 13.76953125 C-0.18886719 12.96708984 -0.18242188 12.16464844 -0.17578125 11.33789062 C-0.15902344 10.50451172 -0.14226563 9.67113281 -0.125 8.8125 C-0.11597656 7.96751953 -0.10695312 7.12253906 -0.09765625 6.25195312 C-0.07410703 4.16784757 -0.03823647 2.08388783 0 0 Z " fill="#090619" transform="translate(61,35)"/>
</svg>
